
<svg width="929px" height="436px" viewBox="0 0 929 436" version="1.1" xmlns="http://www.w3.org/2000/svg" xmlns:xlink="http://www.w3.org/1999/xlink">
    <defs>
        <path d="M2.331,18.5605 C2.331,18.5605 -0.1378125,20.924 0.088375,24.9743333 L0.088375,24.9743333 C0.088375,24.9743333 0.6033125,27.4925 10.040625,27.4925 L10.040625,27.4925 C10.040625,27.4925 13.544125,19.8945 13.428625,3.18083333 L13.428625,3.18083333 C13.428625,3.18083333 8.577625,3.44183333 3.8276875,0.0198333333 L3.8276875,0.0198333333 C3.8276875,0.0198333333 6.7055625,12.7025 2.331,18.5605" id="path-1"></path>
        <path d="M2.331,18.5605 C2.331,18.5605 -0.1378125,20.924 0.088375,24.9743333 L0.088375,24.9743333 C0.088375,24.9743333 0.6033125,27.4925 10.040625,27.4925 L10.040625,27.4925 C10.040625,27.4925 13.544125,19.8945 13.428625,3.18083333 L13.428625,3.18083333 C13.428625,3.18083333 8.577625,3.44183333 3.8276875,0.0198333333 L3.8276875,0.0198333333 C3.8276875,0.0198333333 6.7055625,12.7025 2.331,18.5605" id="path-3"></path>
        <path d="M2.331,18.5605 C2.331,18.5605 -0.1378125,20.924 0.088375,24.9743333 L0.088375,24.9743333 C0.088375,24.9743333 0.6033125,27.4925 10.040625,27.4925 L10.040625,27.4925 C10.040625,27.4925 13.544125,19.8945 13.428625,3.18083333 L13.428625,3.18083333 C13.428625,3.18083333 8.577625,3.44183333 3.8276875,0.0198333333 L3.8276875,0.0198333333 C3.8276875,0.0198333333 6.7055625,12.7025 2.331,18.5605" id="path-5"></path>
        <path d="M2.331,18.5605 C2.331,18.5605 -0.1378125,20.924 0.088375,24.9743333 L0.088375,24.9743333 C0.088375,24.9743333 0.6033125,27.4925 10.040625,27.4925 L10.040625,27.4925 C10.040625,27.4925 13.544125,19.8945 13.428625,3.18083333 L13.428625,3.18083333 C13.428625,3.18083333 8.577625,3.44183333 3.8276875,0.0198333333 L3.8276875,0.0198333333 C3.8276875,0.0198333333 6.7055625,12.7025 2.331,18.5605" id="path-7"></path>
        <path d="M2.331,18.5605 C2.331,18.5605 -0.1378125,20.924 0.088375,24.9743333 L0.088375,24.9743333 C0.088375,24.9743333 0.6033125,27.4925 10.040625,27.4925 L10.040625,27.4925 C10.040625,27.4925 13.544125,19.8945 13.428625,3.18083333 L13.428625,3.18083333 C13.428625,3.18083333 8.577625,3.44183333 3.8276875,0.0198333333 L3.8276875,0.0198333333 C3.8276875,0.0198333333 6.7055625,12.7025 2.331,18.5605" id="path-9"></path>
        <path d="M2.331,18.5605 C2.331,18.5605 -0.1378125,20.924 0.088375,24.9743333 L0.088375,24.9743333 C0.088375,24.9743333 0.6033125,27.4925 10.040625,27.4925 L10.040625,27.4925 C10.040625,27.4925 13.544125,19.8945 13.428625,3.18083333 L13.428625,3.18083333 C13.428625,3.18083333 8.577625,3.44183333 3.8276875,0.0198333333 L3.8276875,0.0198333333 C3.8276875,0.0198333333 6.7055625,12.7025 2.331,18.5605" id="path-11"></path>
        <path d="M2.331,18.5605 C2.331,18.5605 -0.1378125,20.924 0.088375,24.9743333 L0.088375,24.9743333 C0.088375,24.9743333 0.6033125,27.4925 10.040625,27.4925 L10.040625,27.4925 C10.040625,27.4925 13.544125,19.8945 13.428625,3.18083333 L13.428625,3.18083333 C13.428625,3.18083333 8.577625,3.44183333 3.8276875,0.0198333333 L3.8276875,0.0198333333 C3.8276875,0.0198333333 6.7055625,12.7025 2.331,18.5605" id="path-13"></path>
        <path d="M2.331,18.5605 C2.331,18.5605 -0.1378125,20.924 0.088375,24.9743333 L0.088375,24.9743333 C0.088375,24.9743333 0.6033125,27.4925 10.040625,27.4925 L10.040625,27.4925 C10.040625,27.4925 13.544125,19.8945 13.428625,3.18083333 L13.428625,3.18083333 C13.428625,3.18083333 8.577625,3.44183333 3.8276875,0.0198333333 L3.8276875,0.0198333333 C3.8276875,0.0198333333 6.7055625,12.7025 2.331,18.5605" id="path-15"></path>
        <path d="M0.8775,12.7643455 C14.985,24.2548091 29.988,12.7643455 29.988,12.7643455 L29.988,12.7643455 L29.988,1.14943636 L0.8775,0.702354545 C0.8775,0.702354545 0.8775,9.25221818 0.8775,12.7643455 L0.8775,12.7643455 Z" id="path-17"></path>
        <path d="M0.858864198,45.2471579 C2.4557037,73.2048211 21.7338272,66.8121053 32.7306667,60.4240421 L32.7306667,60.4240421 C43.7275062,54.0313263 45.834963,51.6398737 50.1984198,52.9146947 L50.1984198,52.9146947 C54.5618765,54.1988211 76.0820741,52.9146947 78.6305185,45.41 L78.6305185,45.41 C81.178963,37.9053053 67.6197531,34.3274316 62.6203457,34.3274316 L62.6203457,34.3274316 C62.6203457,34.3274316 59.8026667,28.8187158 53.2481975,33.0758737 L53.2481975,33.0758737 C53.2481975,33.0758737 32.2293333,35.1462947 22.4022716,41.7158105 L22.4022716,41.7158105 C22.4022716,41.7158105 20.0070123,33.476 20.1416296,26.1062316 L20.1416296,26.1062316 C20.2855309,18.7364632 20.7079506,0.214336842 20.7079506,0.214336842 L20.7079506,0.214336842 C20.7079506,0.214336842 -0.737975309,17.2988 0.858864198,45.2471579 L0.858864198,45.2471579 Z" id="path-19"></path>
        <path d="M0.858864198,45.2471579 C2.4557037,73.2048211 21.7338272,66.8121053 32.7306667,60.4240421 L32.7306667,60.4240421 C43.7275062,54.0313263 45.834963,51.6398737 50.1984198,52.9146947 L50.1984198,52.9146947 C54.5618765,54.1988211 76.0820741,52.9146947 78.6305185,45.41 L78.6305185,45.41 C81.178963,37.9053053 67.6197531,34.3274316 62.6203457,34.3274316 L62.6203457,34.3274316 C62.6203457,34.3274316 59.8026667,28.8187158 53.2481975,33.0758737 L53.2481975,33.0758737 C53.2481975,33.0758737 32.2293333,35.1462947 22.4022716,41.7158105 L22.4022716,41.7158105 C22.4022716,41.7158105 20.0070123,33.476 20.1416296,26.1062316 L20.1416296,26.1062316 C20.2855309,18.7364632 20.7079506,0.214336842 20.7079506,0.214336842 L20.7079506,0.214336842 C20.7079506,0.214336842 -0.737975309,17.2988 0.858864198,45.2471579 L0.858864198,45.2471579 Z" id="path-21"></path>
        <path d="M0.858864198,45.2471579 C2.4557037,73.2048211 21.7338272,66.8121053 32.7306667,60.4240421 L32.7306667,60.4240421 C43.7275062,54.0313263 45.834963,51.6398737 50.1984198,52.9146947 L50.1984198,52.9146947 C54.5618765,54.1988211 76.0820741,52.9146947 78.6305185,45.41 L78.6305185,45.41 C81.178963,37.9053053 67.6197531,34.3274316 62.6203457,34.3274316 L62.6203457,34.3274316 C62.6203457,34.3274316 59.8026667,28.8187158 53.2481975,33.0758737 L53.2481975,33.0758737 C53.2481975,33.0758737 32.2293333,35.1462947 22.4022716,41.7158105 L22.4022716,41.7158105 C22.4022716,41.7158105 20.0070123,33.476 20.1416296,26.1062316 L20.1416296,26.1062316 C20.2855309,18.7364632 20.7079506,0.214336842 20.7079506,0.214336842 L20.7079506,0.214336842 C20.7079506,0.214336842 -0.737975309,17.2988 0.858864198,45.2471579 L0.858864198,45.2471579 Z" id="path-23"></path>
        <path d="M3.51709091,34.4869565 C22.9083636,58.313913 22.8090909,76.3846087 22.8090909,76.3846087 L22.8090909,76.3846087 C22.8090909,76.3846087 21.2963636,77.075913 17.8218182,78.6705217 L17.8218182,78.6705217 C14.3567273,80.2651304 17.8218182,88.0353913 17.8218182,88.0353913 L17.8218182,88.0353913 C9.82327273,103.511391 14.7963636,104.036783 14.7963636,104.036783 L14.7963636,104.036783 C20.4407273,107.184522 27.976,99.5755652 27.976,99.5755652 L27.976,99.5755652 C43.0465455,89.3488696 36.0454545,57.6133913 36.0454545,57.6133913 L36.0454545,57.6133913 C29.8574545,24.0436522 0.713818182,0.202869565 0.713818182,0.202869565 L0.713818182,0.202869565 L3.51709091,34.4869565 Z" id="path-25"></path>
        <path d="M17.2461333,7.11889655 C17.2461333,7.11889655 2.89137778,32.2648276 4.6392,37.7329655 L4.6392,37.7329655 C4.6392,37.7329655 -3.27075556,41.5081379 2.21768889,50.5591724 L2.21768889,50.5591724 L45.8001778,50.5591724 C45.8001778,50.5591724 51.4488,44.7158621 47.7741333,37.1702069 L47.7741333,37.1702069 C47.7741333,37.1702069 54.8596444,25.9666207 47.7741333,1.95558621 L47.7741333,1.95558621 C47.7741333,1.95558621 43.6519111,0.26262069 37.5227556,0.26262069 L37.5227556,0.26262069 C31.9118222,0.26262069 24.6096,1.68358621 17.2461333,7.11889655" id="path-27"></path>
        <path d="M17.2461333,7.11889655 C17.2461333,7.11889655 2.89137778,32.2648276 4.6392,37.7329655 L4.6392,37.7329655 C4.6392,37.7329655 -3.27075556,41.5081379 2.21768889,50.5591724 L2.21768889,50.5591724 L45.8001778,50.5591724 C45.8001778,50.5591724 51.4488,44.7158621 47.7741333,37.1702069 L47.7741333,37.1702069 C47.7741333,37.1702069 54.8596444,25.9666207 47.7741333,1.95558621 L47.7741333,1.95558621 C47.7741333,1.95558621 43.6519111,0.26262069 37.5227556,0.26262069 L37.5227556,0.26262069 C31.9118222,0.26262069 24.6096,1.68358621 17.2461333,7.11889655 L17.2461333,7.11889655 Z" id="path-29"></path>
        <path d="M17.2461333,7.11889655 C17.2461333,7.11889655 2.89137778,32.2648276 4.6392,37.7329655 L4.6392,37.7329655 C4.6392,37.7329655 -3.27075556,41.5081379 2.21768889,50.5591724 L2.21768889,50.5591724 L45.8001778,50.5591724 C45.8001778,50.5591724 51.4488,44.7158621 47.7741333,37.1702069 L47.7741333,37.1702069 C47.7741333,37.1702069 54.8596444,25.9666207 47.7741333,1.95558621 L47.7741333,1.95558621 C47.7741333,1.95558621 43.6519111,0.26262069 37.5227556,0.26262069 L37.5227556,0.26262069 C31.9118222,0.26262069 24.6096,1.68358621 17.2461333,7.11889655 L17.2461333,7.11889655 Z" id="path-31"></path>
        <path d="M17.2461333,7.11889655 C17.2461333,7.11889655 2.89137778,32.2648276 4.6392,37.7329655 L4.6392,37.7329655 C4.6392,37.7329655 -3.27075556,41.5081379 2.21768889,50.5591724 L2.21768889,50.5591724 L45.8001778,50.5591724 C45.8001778,50.5591724 51.4488,44.7158621 47.7741333,37.1702069 L47.7741333,37.1702069 C47.7741333,37.1702069 54.8596444,25.9666207 47.7741333,1.95558621 L47.7741333,1.95558621 C47.7741333,1.95558621 43.6519111,0.26262069 37.5227556,0.26262069 L37.5227556,0.26262069 C31.9118222,0.26262069 24.6096,1.68358621 17.2461333,7.11889655" id="path-33"></path>
        <path d="M17.2461333,7.11889655 C17.2461333,7.11889655 2.89137778,32.2648276 4.6392,37.7329655 L4.6392,37.7329655 C4.6392,37.7329655 -3.27075556,41.5081379 2.21768889,50.5591724 L2.21768889,50.5591724 L45.8001778,50.5591724 C45.8001778,50.5591724 51.4488,44.7158621 47.7741333,37.1702069 L47.7741333,37.1702069 C47.7741333,37.1702069 54.8596444,25.9666207 47.7741333,1.95558621 L47.7741333,1.95558621 C47.7741333,1.95558621 43.6519111,0.26262069 37.5227556,0.26262069 L37.5227556,0.26262069 C31.9118222,0.26262069 24.6096,1.68358621 17.2461333,7.11889655 L17.2461333,7.11889655 Z" id="path-35"></path>
        <path d="M17.2461333,7.11889655 C17.2461333,7.11889655 2.89137778,32.2648276 4.6392,37.7329655 L4.6392,37.7329655 C4.6392,37.7329655 -3.27075556,41.5081379 2.21768889,50.5591724 L2.21768889,50.5591724 L45.8001778,50.5591724 C45.8001778,50.5591724 51.4488,44.7158621 47.7741333,37.1702069 L47.7741333,37.1702069 C47.7741333,37.1702069 54.8596444,25.9666207 47.7741333,1.95558621 L47.7741333,1.95558621 C47.7741333,1.95558621 43.6519111,0.26262069 37.5227556,0.26262069 L37.5227556,0.26262069 C31.9118222,0.26262069 24.6096,1.68358621 17.2461333,7.11889655" id="path-37"></path>
        <path d="M17.2461333,7.11889655 C17.2461333,7.11889655 2.89137778,32.2648276 4.6392,37.7329655 L4.6392,37.7329655 C4.6392,37.7329655 -3.27075556,41.5081379 2.21768889,50.5591724 L2.21768889,50.5591724 L45.8001778,50.5591724 C45.8001778,50.5591724 51.4488,44.7158621 47.7741333,37.1702069 L47.7741333,37.1702069 C47.7741333,37.1702069 54.8596444,25.9666207 47.7741333,1.95558621 L47.7741333,1.95558621 C47.7741333,1.95558621 43.6519111,0.26262069 37.5227556,0.26262069 L37.5227556,0.26262069 C31.9118222,0.26262069 24.6096,1.68358621 17.2461333,7.11889655" id="path-39"></path>
        <path d="M17.2461333,7.11889655 C17.2461333,7.11889655 2.89137778,32.2648276 4.6392,37.7329655 L4.6392,37.7329655 C4.6392,37.7329655 -3.27075556,41.5081379 2.21768889,50.5591724 L2.21768889,50.5591724 L45.8001778,50.5591724 C45.8001778,50.5591724 51.4488,44.7158621 47.7741333,37.1702069 L47.7741333,37.1702069 C47.7741333,37.1702069 54.8596444,25.9666207 47.7741333,1.95558621 L47.7741333,1.95558621 C47.7741333,1.95558621 43.6519111,0.26262069 37.5227556,0.26262069 L37.5227556,0.26262069 C31.9118222,0.26262069 24.6096,1.68358621 17.2461333,7.11889655 L17.2461333,7.11889655 Z" id="path-41"></path>
        <path d="M17.2461333,7.11889655 C17.2461333,7.11889655 2.89137778,32.2648276 4.6392,37.7329655 L4.6392,37.7329655 C4.6392,37.7329655 -3.27075556,41.5081379 2.21768889,50.5591724 L2.21768889,50.5591724 L45.8001778,50.5591724 C45.8001778,50.5591724 51.4488,44.7158621 47.7741333,37.1702069 L47.7741333,37.1702069 C47.7741333,37.1702069 54.8596444,25.9666207 47.7741333,1.95558621 L47.7741333,1.95558621 C47.7741333,1.95558621 43.6519111,0.26262069 37.5227556,0.26262069 L37.5227556,0.26262069 C31.9118222,0.26262069 24.6096,1.68358621 17.2461333,7.11889655" id="path-43"></path>
        <path d="M17.2461333,7.11889655 C17.2461333,7.11889655 2.89137778,32.2648276 4.6392,37.7329655 L4.6392,37.7329655 C4.6392,37.7329655 -3.27075556,41.5081379 2.21768889,50.5591724 L2.21768889,50.5591724 L45.8001778,50.5591724 C45.8001778,50.5591724 51.4488,44.7158621 47.7741333,37.1702069 L47.7741333,37.1702069 C47.7741333,37.1702069 54.8596444,25.9666207 47.7741333,1.95558621 L47.7741333,1.95558621 C47.7741333,1.95558621 43.6519111,0.26262069 37.5227556,0.26262069 L37.5227556,0.26262069 C31.9118222,0.26262069 24.6096,1.68358621 17.2461333,7.11889655" id="path-45"></path>
    </defs>
    <g id="Page-1" stroke="none" stroke-width="1" fill="none" fill-rule="evenodd">
        <g id="Desktop" transform="translate(-31.000000, -202.000000)">
            <g id="Group-211" transform="translate(31.000000, 202.000000)">
                <polygon id="Fill-1" fill="#B68F76" points="0 433 927 433 927 229 0 229"></polygon>
                <g id="Group-28" transform="translate(217.000000, 242.000000)" fill="#A6755A">
                    <path d="M286.19643,0.332571429 C286.19643,0.332571429 289.198267,5.91056085 288.628711,9.14653968 C288.049819,12.3778624 289.389675,24.1670688 302.167321,30.6343704 C314.940299,37.0970159 312.844148,52.6948995 309.221403,56.6898201 C305.59399,60.6847407 304.767668,71.4170159 323.609677,79.9050582 C323.609677,79.9050582 306.747106,80.4870688 306.420312,84.1141587 C306.088849,87.7365926 349.715851,102.547598 363.599929,102.724529 C377.484006,102.90146 349.057595,106.197968 347.073488,109.163894 C345.089382,112.134476 333.189411,114.76982 331.541435,120.706328 C329.884122,126.63818 314.352069,120.045164 317.325895,126.307598 C320.304389,132.570032 334.622636,137.514794 326.798253,140.811302 C318.978539,144.10781 269.529935,167.518603 359.879145,190.854899 L550.810888,190.854899 L290.26735,0.332571429" id="Fill-2"></path>
                    <path d="M191.345399,13.3458624 C191.345399,13.3458624 198.418155,23.2260741 193.072738,26.5551746 C187.736659,29.879619 164.683675,33.2087196 169.235449,42.581418 C173.782554,51.9587725 176.541629,63.4546455 168.642551,66.178455 C160.738804,68.8976085 141.331908,73.4326349 149.520432,76.4590899 C157.708957,79.485545 184.398691,85.920254 172.872199,89.9617354 C161.345707,94.0032169 114.34339,91.5820529 112.219229,98.5382434 C110.099736,105.494434 120.407753,113.358561 112.219229,116.687661 C104.030704,120.012106 79.4978099,109.656974 73.1346635,123.471577 C66.7668485,137.28618 67.7752415,150.779513 56.9256799,151.571048 C46.0807868,152.362582 0.577053365,155.565968 0.577053365,155.565968 L191.345399,13.3458624 Z" id="Fill-4"></path>
                    <path d="M89.1718467,143.925757 C89.1718467,143.925757 76.0207215,146.472635 89.1718467,149.024169 C102.32764,151.571048 115.086613,153.605757 111.515221,149.024169 C107.943829,144.43327 106.160467,140.359196 89.1718467,143.925757" id="Fill-6"></path>
                    <path d="M121.035198,125.728847 C121.035198,125.728847 116.502098,128.55509 127.683122,128.457312 C138.864146,128.354878 151.861211,125.523979 143.696029,124.229587 C135.540184,122.93054 126.772767,123.70345 121.035198,125.728847" id="Fill-8"></path>
                    <path d="M133.19427,142.570836 C133.19427,142.570836 136.443536,148.85655 140.374401,144.936127 C144.305266,141.015704 149.141818,138.003217 142.489225,139.209143 C135.841301,140.415069 131.107456,139.94946 133.19427,142.570836" id="Fill-10"></path>
                    <path d="M302.281232,100.806688 C302.281232,100.806688 295.143117,104.773672 302.281232,105.150815 C309.414679,105.532614 318.947727,104.606053 313.989795,102.976423 C309.031863,101.346794 305.343759,97.3798095 302.281232,100.806688" id="Fill-12"></path>
                    <path d="M288.439638,50.3947937 C288.439638,50.3947937 278.617143,57.4999788 286.198764,56.9784974 C293.780386,56.461672 296.828907,59.7581799 297.211723,55.8284444 C297.58987,51.8940529 297.58987,45.464 288.439638,50.3947937" id="Fill-14"></path>
                    <path d="M206.052997,148.895661 C206.052997,148.895661 186.221268,154.622646 197.280912,155.567831 C208.340555,156.503704 223.900619,157.667725 216.501069,155.567831 C209.101518,153.458624 215.436654,145.529312 206.052997,148.895661" id="Fill-16"></path>
                    <path d="M192.320645,38.1995767 C192.320645,38.1995767 181.620475,41.2446561 188.688563,42.0035979 C195.751983,42.7625397 200.411132,43.9079365 198.464373,42.0035979 C196.517614,40.1039153 200.714583,35.9180952 192.320645,38.1995767" id="Fill-18"></path>
                    <path d="M93.1563996,171.721185 C93.1563996,171.721185 80.952977,175.506582 90.8688414,176.661291 C100.784706,177.806688 108.795828,180.456 108.413012,176.661291 C108.034865,172.861926 104.977006,166.012825 93.1563996,171.721185" id="Fill-20"></path>
                    <path d="M230.49859,120.104296 C230.49859,120.104296 219.803089,120.113608 222.580838,123.06091 C225.358587,126.003556 218.902071,132.973714 226.310959,133.532444 C233.715177,134.086519 263.95763,129.64927 255.545018,128.080169 C247.137075,126.511069 230.49859,120.104296 230.49859,120.104296" id="Fill-22"></path>
                    <path d="M276.426689,176.658963 L206.175311,176.658963 C206.175311,176.658963 213.663563,169.851767 218.500115,170.280127 C223.331998,170.708487 228.87349,163.37981 227.748385,161.363725 C226.62328,159.342984 223.556085,159.11018 227.748385,155.566899 C231.945354,152.018963 270.791827,166.694942 272.766596,168.198857 C274.741366,169.698116 281.160534,171.509333 278.793612,174.084148 C276.426689,176.658963 282.164259,176.658963 276.426689,176.658963" id="Fill-24"></path>
                    <path d="M16.5138642,165.837291 C16.5138642,165.837291 -11.0442089,175.372952 5.76234081,176.658032 C22.5782275,177.947767 42.0644883,176.699937 34.7022858,174.083217 C27.3400833,171.466497 28.623917,160.678349 16.5138642,165.837291" id="Fill-26"></path>
                </g>
                <polygon id="Fill-29" fill="#936B57" points="517.905568 246.492198 773.608046 432.246867 928 435 492 225"></polygon>
                <polygon id="Fill-30" fill="#EADCDC" points="483 225 759.073701 432 774 432 493.351135 225"></polygon>
                <polygon id="Fill-31" fill="#2F2D37" points="685 376.03601 719.464444 401 723 393.003868 685 366"></polygon>
                <polygon id="Fill-32" fill="#2F2D37" points="627 335.238708 659 359 658.159239 348.686058 637.581507 333.655852 627 326"></polygon>
                <polygon id="Fill-33" fill="#2F2D37" points="584 301.793929 614 325 614 315.832458 584 293"></polygon>
                <polygon id="Fill-34" fill="#2F2D37" points="543 272.055884 564 287 564 278.708776 543 264"></polygon>
                <polygon id="Fill-35" fill="#2F2D37" points="511 247.902098 518.632643 253.353465 531 262 531 254.225683 511 241"></polygon>
                <path d="M751,415 L890,415" id="Stroke-36" stroke="#2F2D37" stroke-width="0.081"></path>
                <polygon id="Fill-37" fill="#EADCDC" points="434.653354 228 154 435 168.921883 435 445 228"></polygon>
                <polygon id="Fill-38" fill="#2F2D37" points="196 402.948466 199.581631 411 234 386.185284 234 376"></polygon>
                <polygon id="Fill-39" fill="#2F2D37" points="289.828256 335.123819 258.854076 357.626737 258 368 273.05309 356.88841 290 344.368955 290 335"></polygon>
                <polygon id="Fill-40" fill="#2F2D37" points="305 324.690065 305 334 335 310.93401 335 302"></polygon>
                <polygon id="Fill-41" fill="#2F2D37" points="353 285.582081 353 294 374 279.166504 374 271"></polygon>
                <polygon id="Fill-42" fill="#2F2D37" points="387 263.365336 387 272 387.247501 271.811555 407 256.494328 407 249"></polygon>
                <polygon id="Fill-43" fill="#936B57" points="0 436 154.39497 433.24699 436 226"></polygon>
                <path d="M193,404.158 L69,401.842" id="Stroke-44" stroke="#2F2D37" stroke-width="0.081"></path>
                <path d="M244,368 L143,368" id="Stroke-45" stroke="#2F2D37" stroke-width="0.081"></path>
                <path d="M292,330 L220,330" id="Stroke-46" stroke="#2F2D37" stroke-width="0.081"></path>
                <path d="M326,306 L269,306" id="Stroke-47" stroke="#2F2D37" stroke-width="0.081"></path>
                <path d="M352,288 L308,288" id="Stroke-48" stroke="#2F2D37" stroke-width="0.081"></path>
                <path d="M372,275 L339,275" id="Stroke-49" stroke="#2F2D37" stroke-width="0.081"></path>
                <path d="M386,261 L362,261" id="Stroke-50" stroke="#2F2D37" stroke-width="0.081"></path>
                <g id="Group-55" transform="translate(142.000000, 339.000000)" fill="#A6755A">
                    <path d="M12.7541648,42.6581689 C12.7541648,42.6581689 -8.28805915,48.0806578 5.63528573,50.0263467 C19.5680161,51.9767467 41.3329212,53.3241244 33.932478,50.0263467 C26.5320349,46.7285689 20.2672336,40.2413689 12.7541648,42.6581689" id="Fill-51"></path>
                    <path d="M123.528053,14.38208 C123.528053,14.38208 107.220798,12.6483911 112.579902,10.4624356 C117.939005,8.27648 123.889393,9.10563556 116.127609,5.63354667 C108.361133,2.15674667 96.793541,1.12501333 111.500573,0.333546667 C126.207604,-0.45792 121.782355,1.13443556 128.783916,0.993102222 C135.780784,0.851768889 137.493632,4.07416889 137.493632,4.07416889 L123.528053,14.38208 Z" id="Fill-53"></path>
                </g>
                <polygon id="Fill-56" fill="#F1F0E0" points="6 0 6 216.049751 927.489804 229 929 72.5325485 928.752962 0"></polygon>
                <polygon id="Fill-57" fill="#3F514E" points="452 226 520 226 520 22 452 22"></polygon>
                <polygon id="Fill-58" fill="#414C54" points="389.855 182.1678 394.145 184 394.145 119.206737 391.979 107"></polygon>
                <polygon id="Fill-59" fill="#55616B" points="283 208 392 208 392 108 283 108"></polygon>
                <polygon id="Fill-60" fill="#7A5646" points="253 18 270 52.1922828 270 182 253 178.200344"></polygon>
                <polygon id="Fill-61" fill="#936B57" points="161 152 253 152 253 16 161 16"></polygon>
                <polygon id="Fill-62" fill="#AA8167" points="565.045059 229 311 229 312.950309 172 567 172"></polygon>
                <polygon id="Fill-63" fill="#936B57" points="533 226 495 226 533 253"></polygon>
                <polygon id="Fill-64" fill="#DBC9BF" points="745.486168 89.7259073 739 229 927.737247 228.623508 929 0"></polygon>
                <polygon id="Fill-65" fill="#7F6A5C" points="606 240 528 240 529.51161 21 606 21.3804693"></polygon>
                <polygon id="Fill-66" fill="#A08F84" points="528 21 508 80.3485115 508 233.823246 526.280522 240"></polygon>
                <polygon id="Fill-67" fill="#55616B" points="533 252.13719 533 186.35681 602 154 602 305"></polygon>
                <polygon id="Fill-68" fill="#A58C74" points="602 0 602 304.851061 703 379 703 0"></polygon>
                <polygon id="Fill-69" fill="#987E6C" points="703 378.354629 816 379 816 0.64537113 703 0"></polygon>
                <polygon id="Fill-70" fill="#7B5945" points="436 226 273 306 273 226"></polygon>
                <polyline id="Fill-71" fill="#634436" points="311 261 368 261 366.704331 189 311 189"></polyline>
                <polygon id="Fill-72" fill="#513933" points="406 242.364814 406 208.126795 365 189 366.299113 261"></polygon>
                <polygon id="Fill-73" fill="#A9998B" points="0 436 312 286.299629 312 158.485713 0 0"></polygon>
                <polygon id="Fill-74" fill="#7F736B" points="0 113.929413 0 182 60 159.569904 60 57"></polygon>
                <polygon id="Fill-75" fill="#877D7E" points="60 160 117 160 117 57 60 57"></polygon>
                <polygon id="Fill-76" fill="#2F2D37" points="68 139 100 139 100 80 68 80"></polygon>
                <polygon id="Fill-77" fill="#6D5B5A" points="116 159.79197 193 174 193 166.907666 193 94.1575071 116 56"></polygon>
                <polygon id="Fill-78" fill="#4B413F" points="125 146.884216 179 157 179 151.953577 179 100.15893 125 73"></polygon>
                <polygon id="Fill-79" fill="#6F5648" points="116.149942 160 193 174 140.325806 174 60 160"></polygon>
                <polyline id="Stroke-80" stroke="#2F2D37" stroke-width="0.404" points="172 171 130 172.377239 130 243"></polyline>
                <g id="Group-87" transform="translate(42.000000, 235.000000)" fill="#998A7F">
                    <path d="M130.357493,116.591877 C130.357493,116.591877 123.468675,101.890377 134.74044,97.7810308 C146.012204,93.6670308 154.50329,95.9520692 150.716536,86.3651462 C146.929782,76.7735692 136.417231,77.2296462 147.842702,72.6642231 C159.268172,68.0988 162.472707,63.4821846 171.15476,61.4531077 C179.836814,59.4240308 179.375696,59.1075692 183.949611,63.1517615 C188.518867,67.1866462 191.262284,79.3192231 191.262284,79.3192231 C191.262284,79.3192231 172.9806,91.5309154 162.011589,94.1975692 C151.042579,96.8688769 156.785589,94.5838385 150.716536,100.517492 C144.642825,106.4558 137.092605,115.7728 130.357493,116.591877" id="Fill-81"></path>
                    <path d="M209.998566,4.10888077 C213.356806,9.21415 209.630603,10.5637654 214.84263,11.4759192 C220.054657,12.3880731 215.024282,14.2123808 222.793416,11.4759192 C230.567207,8.73480385 237.423421,4.04372692 231.936587,4.10888077 C226.449753,4.16938077 205.154502,-3.25815769 209.998566,4.10888077" id="Fill-83"></path>
                    <path d="M10.2111941,101.198815 C10.2111941,101.198815 -6.55206257,104.544931 3.2245631,110.836931 C13.0058465,117.133585 9.61965936,124.114354 18.2923973,119.227815 C26.969793,114.341277 36.7464187,97.8247769 10.2111941,101.198815" id="Fill-85"></path>
                </g>
                <path d="M448.372418,338 C448.372418,338 450.957778,350.462269 447.023535,356.21847 C447.023535,356.21847 444.809983,358.540897 445.01318,362.520844 C445.01318,362.520844 445.471455,365 453.953856,365 C453.953856,365 457.10125,357.529288 456.99749,341.106069 C456.99749,341.106069 452.635236,341.362533 448.372418,338" id="Fill-88" fill="#7A7320"></path>
                <g id="Group-114" transform="translate(445.000000, 339.000000)">
                    <g id="Group-92">
                        <mask id="mask-2" fill="white">
                            <use xlink:href="#path-1"></use>
                        </mask>
                        <g id="Clip-91"></g>
                        <path d="M4.67420625,6.30703333 C4.67420625,6.30703333 5.16026875,15.5387 5.96395625,16.1573667 C6.77245625,16.7760333 -5.19623125,22.5905333 -6.73623125,18.9752 C-8.28104375,15.3550333 -6.47635625,10.8358667 -6.47635625,10.8358667 L4.67420625,6.30703333" id="Fill-90" fill="#000000" mask="url(#mask-2)"></path>
                    </g>
                    <g id="Group-95">
                        <mask id="mask-4" fill="white">
                            <use xlink:href="#path-3"></use>
                        </mask>
                        <g id="Clip-94"></g>
                        <path d="M2.329075,18.5605 C2.329075,18.5605 5.3417,13.935 15.7030125,15.8731667 C26.0691375,17.8113333 18.864825,25.5205 18.864825,25.5205 L3.6813875,30.0831667 L-4.03305,25.5205 L2.329075,18.5605" id="Fill-93" fill="#C4BE51" mask="url(#mask-4)"></path>
                    </g>
                    <g id="Group-98">
                        <mask id="mask-6" fill="white">
                            <use xlink:href="#path-5"></use>
                        </mask>
                        <g id="Clip-97"></g>
                        <path d="M-0.800975,20.3962 C-0.800975,20.3962 -1.9222875,29.1783667 19.084275,24.3982 C40.0908375,19.6180333 -8.2844125,34.3452 -9.8244125,30.0822 C-11.369225,25.8192 -0.800975,20.3962 -0.800975,20.3962" id="Fill-96" fill="#FFFFFF" mask="url(#mask-6)"></path>
                    </g>
                    <g id="Group-101">
                        <mask id="mask-8" fill="white">
                            <use xlink:href="#path-7"></use>
                        </mask>
                        <g id="Clip-100"></g>
                        <path d="M7.59250625,15.7189833 C7.59250625,15.7189833 7.35669375,10.7068167 13.4348813,11.34965 C19.5082563,11.9924833 18.4783813,15.3564833 18.4783813,15.3564833 C18.4783813,15.3564833 10.9901313,14.78615 7.59250625,15.7189833" id="Fill-99" fill="#000000" mask="url(#mask-8)"></path>
                    </g>
                    <g id="Group-104">
                        <mask id="mask-10" fill="white">
                            <use xlink:href="#path-9"></use>
                        </mask>
                        <g id="Clip-103"></g>
                        <path d="M9.3832375,12.0794833 C9.3832375,12.0794833 4.8691125,8.89431667 9.0944875,8.24665 C13.3294875,7.60381667 16.2939875,7.08181667 17.963925,8.75898333 C19.638675,10.4458167 17.578925,12.90115 17.578925,12.90115 C17.578925,12.90115 13.4546125,10.49415 9.3832375,12.0794833" id="Fill-102" fill="#000000" mask="url(#mask-10)"></path>
                    </g>
                    <g id="Group-107">
                        <mask id="mask-12" fill="white">
                            <use xlink:href="#path-11"></use>
                        </mask>
                        <g id="Clip-106"></g>
                        <path d="M9.0964125,8.24713333 C9.0964125,8.24713333 5.944225,3.85846667 13.432475,4.6318 C20.920725,5.40513333 19.6357875,8.75946667 19.6357875,8.75946667 C19.6357875,8.75946667 14.6404125,6.70046667 9.0964125,8.24713333" id="Fill-105" fill="#000000" mask="url(#mask-12)"></path>
                    </g>
                    <g id="Group-110">
                        <mask id="mask-14" fill="white">
                            <use xlink:href="#path-13"></use>
                        </mask>
                        <g id="Clip-109"></g>
                        <path d="M9.0964125,7.08568333 C9.428475,7.21618333 4.115475,6.47185 3.8122875,3.18035 C3.5235375,0.03385 0.072975,7.60285 0.072975,7.60285 C0.072975,7.60285 3.9181625,9.10601667 7.5949125,8.80635 C7.5949125,8.80635 11.4256625,8.50668333 9.0964125,7.08568333" id="Fill-108" fill="#FFFFFF" mask="url(#mask-14)"></path>
                    </g>
                    <g id="Group-113">
                        <mask id="mask-16" fill="white">
                            <use xlink:href="#path-15"></use>
                        </mask>
                        <g id="Clip-112"></g>
                        <path d="M4.0866,1.35093333 C4.0866,1.35093333 3.9181625,3.30843333 7.5949125,1.90193333 C11.2716625,0.495433333 7.5949125,-2.08556667 7.5949125,-2.08556667 L0.072975,-1.44273333 L4.0866,1.35093333" id="Fill-111" fill="#C4BE51" mask="url(#mask-16)"></path>
                    </g>
                </g>
                <g id="Group-119" transform="translate(413.000000, 134.000000)">
                    <path d="M20.5837888,9.49136035 C20.5837888,9.49136035 8.68826738,10.9950302 1.1849385,17.8282211 C1.1849385,17.8282211 -0.926692513,96.1799971 1.1849385,98.2768578 C1.1849385,98.2768578 0.879925134,102.889032 2.41906952,103.463829 C2.41906952,103.463829 36.2473984,74.5400265 76.4481604,96.0650376 L70.0804198,17.8282211 C70.0804198,17.8282211 57.3355535,4.93896536 21.9680802,9.49136035 L20.5837888,9.49136035 Z" id="Fill-115" fill="#191919"></path>
                    <path d="M51.9607487,12.7378158 C51.9607487,12.7378158 36.3159091,24.2015741 21.6001872,12.7378158 C21.6048797,9.23844952 21.6001872,0.70845689 21.6001872,0.70845689 L51.9607487,1.14990125 L51.9607487,12.7378158 Z" id="Fill-117" fill="#7C4E24"></path>
                </g>
                <g id="Group-122" transform="translate(434.000000, 134.000000)">
                    <mask id="mask-18" fill="white">
                        <use xlink:href="#path-17"></use>
                    </mask>
                    <g id="Clip-121"></g>
                    <path d="M0.351,2.38651636 C0.351,2.38651636 10.044,23.4408436 30.267,10.5077345 L29.88,4.43295273 L0.351,2.38651636 Z" id="Fill-120" fill="#5B3311" mask="url(#mask-18)"></path>
                </g>
                <path d="M414.886612,152 C414.886612,152 393.491369,168.896811 395.08478,196.542791 C396.673558,224.188771 415.914918,217.866272 426.888144,211.548374 C437.856738,205.225874 439.959669,202.860689 444.318388,204.121508 C448.672475,205.391529 470.14183,204.121508 472.684802,196.699243 C475.227774,189.276978 461.69768,185.738403 456.709008,185.738403 C456.709008,185.738403 453.902012,180.285593 447.361617,184.500592 C447.361617,184.500592 426.383255,186.548272 416.577295,193.04563 C416.577295,193.04563 414.187179,184.896324 414.326139,177.602902 C414.465099,170.314081 414.886612,152 414.886612,152" id="Fill-123" fill="#7C4E24"></path>
                <g id="Group-134" transform="translate(394.000000, 153.000000)">
                    <g id="Group-127">
                        <mask id="mask-20" fill="white">
                            <use xlink:href="#path-19"></use>
                        </mask>
                        <g id="Clip-126"></g>
                        <path d="M25.044484,31.9322568 C25.044484,31.9322568 18.9310025,27.5634358 -2.21783704,33.0768042 C-23.3666765,38.5901726 -9.38504691,-5.28879579 10.366558,-8.22460632 C30.113521,-11.1604168 30.856237,-10.4532168 30.856237,-10.4532168 L25.044484,31.9322568 Z" id="Fill-125" fill="#191919" mask="url(#mask-20)"></path>
                    </g>
                    <g id="Group-130">
                        <mask id="mask-22" fill="white">
                            <use xlink:href="#path-21"></use>
                        </mask>
                        <g id="Clip-129"></g>
                        <path d="M25.044484,31.9322568 C25.044484,31.9322568 18.9310025,27.5634358 -2.21783704,33.0768042 C-23.3666765,38.5901726 -9.38504691,-5.28879579 10.366558,-8.22460632 C30.113521,-11.1604168 30.856237,-10.4532168 30.856237,-10.4532168 L25.044484,31.9322568 Z" id="Stroke-128" stroke="#000000" stroke-width="0.097" mask="url(#mask-22)"></path>
                    </g>
                    <g id="Group-133">
                        <mask id="mask-24" fill="white">
                            <use xlink:href="#path-23"></use>
                        </mask>
                        <g id="Clip-132"></g>
                        <path d="M22.4018074,41.71488 C22.4018074,41.71488 14.6636346,47.5678905 13.0203753,49.9965642 C13.0203753,49.9965642 19.6212642,41.5799537 22.5178568,40.4354063 L22.4018074,41.71488 Z" id="Fill-131" fill="#000000" mask="url(#mask-24)"></path>
                    </g>
                </g>
                <path d="M482,152 C482,152 511.969645,176.160585 518.331997,210.180631 C518.331997,210.180631 525.52549,242.341811 510.035179,252.705688 C510.035179,252.705688 502.287593,260.416712 496.479334,257.226749 C496.479334,257.226749 491.370982,256.69431 499.594894,241.015384 C499.594894,241.015384 496.032171,233.140892 499.594894,231.520223 C503.162477,229.908895 504.722687,229.203646 504.722687,229.203646 C504.722687,229.203646 504.819897,210.890549 484.887118,186.743976 L482,152 Z" id="Fill-135" fill="#7C4E24"></path>
                <g id="Group-139" transform="translate(483.000000, 153.000000)">
                    <mask id="mask-26" fill="white">
                        <use xlink:href="#path-25"></use>
                    </mask>
                    <g id="Clip-138"></g>
                    <path d="M19.1903636,10.9766174 C19.1903636,10.9766174 26.1441818,36.6378348 4.51690909,46.7124435 C-17.1103636,56.7824435 -17.2852727,-3.78042609 -2.33763636,-7.33833913 C12.6147273,-10.8870348 19.1903636,2.81922609 19.1903636,2.81922609 L19.1903636,10.9766174 Z" id="Fill-137" fill="#191919" mask="url(#mask-26)"></path>
                </g>
                <g id="Group-154" transform="translate(415.000000, 222.000000)">
                    <path d="M74.5297821,10.55429 C74.5297821,10.55429 81.4183917,113.141339 72.04275,147.525726 C72.04275,147.525726 60.9355709,143.303082 41.6352634,152.634661 C41.6352634,152.634661 39.7254104,152.337684 39.3781644,148.894605 C39.0309184,145.460807 41.4616404,130.333532 41.6352634,120.022856 C41.6352634,120.022856 34.1600896,119.331457 26.1640468,111.08106 C18.168004,102.830663 1.38288369,68.970626 0.500691176,18.0158412 C0.500691176,18.0158412 32.1939265,-16.8372131 74.5297821,10.55429" id="Fill-140" fill="#407A95"></path>
                    <path d="M41.6366711,120.021928 C41.6366711,120.021928 42.3827807,68.9650577 32.8851337,33.9867162" id="Stroke-142" stroke="#235A6D" stroke-width="0.097"></path>
                    <path d="M51.0489144,68.8884933 C51.0489144,68.8884933 62.3203316,72.2526877 67.4164011,69.7330221" id="Stroke-144" stroke="#235A6D" stroke-width="0.097"></path>
                    <path d="M18.6274011,76.3426201 C18.6274011,76.3426201 23.4794599,78.1384039 29.9316658,75.1964738" id="Stroke-146" stroke="#235A6D" stroke-width="0.097"></path>
                    <path d="M46.869762,149.418027 C46.869762,149.418027 41.3748289,143.302154 46.869762,140.949538 C52.3693877,138.596922 66.5267005,138.494836 66.0949893,141.910073 C65.6585856,145.329951 64.593385,145.965668 64.593385,145.965668 L46.869762,149.418027 Z" id="Fill-148" fill="#C4BE51"></path>
                    <path d="M52.5200174,147.188378 C52.5200174,147.188378 49.5496564,144.594469 49.9579051,142.594513 C49.9579051,142.594513 56.9919826,140.900815 59.0191484,141.6711 C59.0191484,141.6711 60.9102313,144.520224 59.0191484,145.967988 C57.1280655,147.420392 52.5200174,147.188378 52.5200174,147.188378" id="Fill-150" fill="#000000"></path>
                    <path d="M41.6366711,152.635125 C41.6366711,152.635125 27.3385829,177.511603 29.0795053,182.922156 C29.0795053,182.922156 21.2007754,186.657572 26.672246,195.617929 L70.0826872,195.617929 C70.0826872,195.617929 75.7043182,189.831515 72.0394652,182.365323 C72.0394652,182.365323 79.1016979,171.284363 72.0394652,147.52155 C72.0394652,147.52155 56.9811898,141.377835 41.6366711,152.635125" id="Fill-152" fill="#7A7320"></path>
                </g>
                <g id="Group-185" transform="translate(440.000000, 367.000000)">
                    <g id="Group-157">
                        <mask id="mask-28" fill="white">
                            <use xlink:href="#path-27"></use>
                        </mask>
                        <g id="Clip-156"></g>
                        <path d="M9.19908444,22.6702621 C9.19908444,22.6702621 6.90948444,30.6708138 7.99304,34.0848828 C9.08130667,37.4895724 2.31615111,42.2870897 -0.548204444,38.9199172 C-3.41727111,35.5527448 -6.69620444,36.5750897 -2.39496,32.7999172 C1.90628444,29.0294345 9.19908444,22.6702621 9.19908444,22.6702621" id="Fill-155" fill="#000000" mask="url(#mask-28)"></path>
                    </g>
                    <g id="Group-160">
                        <mask id="mask-30" fill="white">
                            <use xlink:href="#path-29"></use>
                        </mask>
                        <g id="Clip-159"></g>
                        <path d="M50.3525244,21.9921379 C50.3525244,21.9921379 49.2265689,31.2917241 43.9548356,33.0644138 C38.67368,34.8371034 46.1737689,44.6291034 52.7175022,39.2266207 C59.2659467,33.8194483 50.9225689,15.2624828 50.9225689,15.2624828 L50.3525244,21.9921379 Z" id="Fill-158" fill="#000000" mask="url(#mask-30)"></path>
                    </g>
                    <g id="Group-163">
                        <mask id="mask-32" fill="white">
                            <use xlink:href="#path-31"></use>
                        </mask>
                        <g id="Clip-162"></g>
                        <path d="M20.0153244,14.2936 C20.0153244,14.2936 15.6999467,7.82187586 25.6027022,6.29304828 C35.5007467,4.76422069 45.0690133,10.2511172 37.2674133,16.2398069 L20.0153244,14.2936 Z" id="Fill-161" fill="#000000" mask="url(#mask-32)"></path>
                    </g>
                    <g id="Group-166">
                        <mask id="mask-34" fill="white">
                            <use xlink:href="#path-33"></use>
                        </mask>
                        <g id="Clip-165"></g>
                        <path d="M15.8978133,9.54016552 C15.8978133,9.54016552 16.2275911,11.5801655 17.6833244,11.0877517 C19.1343467,10.5953379 19.9352356,5.70871724 29.7673244,6.05106207 C39.5994133,6.3934069 39.8585244,11.5942345 39.8585244,11.5942345 C39.8585244,11.5942345 49.12528,12.8369931 50.5574578,7.12030345 C51.9896356,1.40361379 42.6757689,-3.18755862 42.6757689,-3.18755862 L15.3419022,5.05685517 L15.8978133,9.54016552" id="Fill-164" fill="#C4BE51" mask="url(#mask-34)"></path>
                    </g>
                    <g id="Group-169">
                        <mask id="mask-36" fill="white">
                            <use xlink:href="#path-35"></use>
                        </mask>
                        <g id="Clip-168"></g>
                        <path d="M37.2683556,16.2402759 C37.2683556,16.2402759 48.6127111,18.4256552 51.3781333,12.4135172 L50.6997333,16.7889655 C50.6997333,16.7889655 48.9236444,23.0121379 45.1312,24.1376552 C41.3387556,25.2584828 37.8713778,22.0742069 37.8713778,22.0742069 L37.2683556,16.2402759 Z" id="Fill-167" fill="#FFFFFF" mask="url(#mask-36)"></path>
                    </g>
                    <g id="Group-172">
                        <mask id="mask-38" fill="white">
                            <use xlink:href="#path-37"></use>
                        </mask>
                        <g id="Clip-171"></g>
                        <path d="M20.0153244,14.2936 C20.0153244,14.2936 15.8365689,16.0803586 11.5353244,13.6323586 C7.23408,11.1890483 7.95016889,16.4883586 7.95016889,16.4883586 C7.95016889,16.4883586 8.41185778,23.8511172 17.2451911,22.4629793 C26.0785244,21.0748414 20.0153244,14.2936 20.0153244,14.2936" id="Fill-170" fill="#FFFFFF" mask="url(#mask-38)"></path>
                    </g>
                    <g id="Group-175">
                        <mask id="mask-40" fill="white">
                            <use xlink:href="#path-39"></use>
                        </mask>
                        <g id="Clip-174"></g>
                        <path d="M13.3538133,29.6634759 C13.3538133,29.6634759 12.8638578,22.0990621 24.0339022,19.4447172 C32.3584356,17.4656828 46.2467911,21.3862345 38.7419911,29.6165793 C34.0685689,34.7376828 13.3538133,29.6634759 13.3538133,29.6634759" id="Fill-173" fill="#000000" mask="url(#mask-40)"></path>
                    </g>
                    <g id="Group-178">
                        <mask id="mask-42" fill="white">
                            <use xlink:href="#path-41"></use>
                        </mask>
                        <g id="Clip-177"></g>
                        <path d="M17.2461333,22.4639172 C17.2461333,22.4639172 13.2746667,16.0812966 21.3683556,13.8396414 C29.4620444,11.5979862 42.5966222,15.3309517 37.8713778,22.0746759 L17.2461333,22.4639172 Z" id="Fill-176" fill="#000000" mask="url(#mask-42)"></path>
                    </g>
                    <g id="Group-181">
                        <mask id="mask-44" fill="white">
                            <use xlink:href="#path-43"></use>
                        </mask>
                        <g id="Clip-180"></g>
                        <path d="M0.232426667,42.9581793 L0.232426667,42.9581793 C0.232426667,42.9581793 1.44789333,38.8031448 4.64202667,37.7339034 C7.16718222,35.6892138 12.3352711,25.8174897 26.8690489,26.5396966 C41.3981156,27.2619034 47.7722489,37.1711448 47.7722489,37.1711448 C47.7722489,37.1711448 51.4327822,39.7035586 50.9239822,43.4599724 C50.4104711,47.2257655 62.3295822,54.6025931 48.66736,57.350731 C35.0098489,60.098869 -17.8912178,61.9841103 -15.7099733,53.8803862 C-13.53344,45.7813517 0.232426667,42.9581793 0.232426667,42.9581793" id="Fill-179" fill="#C4BE51" mask="url(#mask-44)"></path>
                    </g>
                    <g id="Group-184">
                        <mask id="mask-46" fill="white">
                            <use xlink:href="#path-45"></use>
                        </mask>
                        <g id="Clip-183"></g>
                        <path d="M0.232426667,42.9581793 C0.232426667,42.9581793 17.7954489,51.9810759 50.0053156,41.1526621 C50.0053156,41.1526621 58.2968711,51.9810759 49.2044267,56.9005241 C40.1119822,61.8152828 -5.75068444,68.1134897 -10.6879289,63.7849379 C-15.6298844,59.4563862 0.232426667,42.9581793 0.232426667,42.9581793" id="Fill-182" fill="#FFFFFF" mask="url(#mask-46)"></path>
                    </g>
                </g>
                <g id="Group-210" transform="translate(428.000000, 82.000000)">
                    <path d="M41.538,27.0177366 C41.6810769,44.6192155 40.7303077,65.9446206 22.3426154,65.9446206 C6.14261538,65.9446206 0.978,45.0887742 0.978,29.8629836 C0.313384615,9.2674866 4.07492308,4.61839021 18.8810769,3.83269292 C37.2872308,2.85173358 40.4349231,10.2066041 41.538,27.0177366" id="Fill-186" fill="#7C4E24"></path>
                    <path d="M1.33384615,18.2964967 C1.33384615,18.2964967 -0.493846154,14.0565208 0.96,12.7454756 C2.41384615,11.4297813 2.30307692,9.46321355 4.47692308,7.65936416 C6.64615385,5.85551476 5.99538462,4.54446958 9.9,3.07070602 C13.8092308,1.59229337 14.1369231,0.60668494 17.5569231,1.09948916 C20.9769231,1.59229337 23.2523077,-0.964709639 25.8553846,0.969314458 C28.4630769,2.90333855 30.42,2.90333855 33.1846154,4.54446958 C35.9538462,6.1856006 37.5830769,4.70718795 38.7230769,6.8364741 C39.8630769,8.97040934 39.5169231,11.1973265 39.5169231,11.1973265 C39.5169231,11.1973265 42,15.5209861 40.4492308,18.2964967 C40.4492308,18.2964967 37.02,15.9812467 36.1707692,14.6283596 C35.3123077,13.2754726 30.3046154,12.908194 28.4723077,12.043462 C26.64,11.1880283 20.6584615,12.4153898 17.6030769,12.1689877 C14.5476923,11.9225855 11.2523077,11.9225855 8.69076923,11.9225855 C6.12,11.9225855 6.00461538,13.6427512 4.47692308,14.261081 C2.94923077,14.8747617 3.13384615,18.0268491 1.33384615,18.2964967" id="Fill-188" fill="#000000"></path>
                    <path d="M17.7895385,104.89475 C17.7895385,104.89475 8.40646154,110.789804 11.0972308,124.811479 C11.0972308,124.811479 10.548,124.379113 7.76953846,126.010946 C7.76953846,126.010946 3.88338462,111.68708 14.0787692,105.364309 L17.7895385,104.89475 Z" id="Fill-190" fill="#000000"></path>
                    <path d="M1.09015385,33.8509785 C1.09015385,33.8509785 7.40861538,60.2253023 17.7886154,59.4024122 C31.9532308,58.28198 35.5624615,70.9414694 41.4147692,36.6311381 C41.4147692,36.6311381 40.9578462,55.9574318 35.2209231,59.8161818 C35.2209231,59.8161818 36.2224615,61.4433655 35.3732308,62.0802917 C34.5193846,62.7265161 33.7209231,63.7679137 32.5532308,63.5865989 C31.3855385,63.4099333 31.1824615,65.3393083 29.9870769,65.4322902 C28.7963077,65.5252721 27.7716923,66.1854438 26.5947692,65.9436908 C26.5947692,65.9436908 25.4086154,66.6364062 23.484,66.6364062 C21.5547692,66.6364062 19.0024615,67.0455267 17.6132308,65.9436908 C17.6132308,65.9436908 15.2501538,65.8414107 13.4593846,64.4187872 C11.6686154,63.0008128 10.464,63.493617 9.64246154,61.7409077 C8.81630769,59.9881983 8.904,61.0946833 7.44092308,59.0630282 C5.97323077,57.031373 5.51169231,58.2122435 5.51169231,56.4781306 C5.51169231,54.7440176 4.71784615,56.3851486 4.47323077,53.5213053 C4.23323077,50.662111 2.34092308,49.7369408 1.09015385,33.8509785" id="Fill-192" fill="#000000"></path>
                    <path d="M30.5856923,291.194735 C30.5856923,291.194735 30.1195385,289.548955 29.0349231,289.683779 C27.9456923,289.813954 25.6656923,287.503353 24.8487692,288.874836 C24.0364615,290.24632 24.7333846,293.421652 27.1056923,293.505336 L30.5856923,291.194735 Z" id="Fill-194" fill="#C4BE51"></path>
                    <path d="M53.0856923,287.294608 C53.0856923,287.294608 53.538,286.044001 54.978,285.876634 C56.4272308,285.704617 55.8318462,282.687354 58.2087692,283.082527 C58.2087692,283.082527 59.6395385,287.206275 57.0133846,288.382497 L53.0856923,287.294608 Z" id="Fill-196" fill="#C4BE51"></path>
                    <path d="M20.4396923,47.4077435 C20.4396923,47.4077435 19.6643077,43.2746968 25.1012308,43.2003113 C30.5381538,43.1259258 31.0227692,45.0971426 30.612,47.6309002 C30.612,47.6309002 32.4489231,50.3459724 27.7596923,50.8945658 C23.0704615,51.4431592 19.4750769,50.4250071 20.4396923,47.4077435" id="Fill-198" fill="#5B3311"></path>
                    <polygon id="Fill-200" fill="#000000" points="7.78338462 111.187302 13.0495385 110.248185 11.8356923 119.653307 6.30184615 120.155409"></polygon>
                    <path d="M21.9858462,47.1897009 C21.9858462,47.1897009 24.7227692,47.8917145 26.7212308,47.1897009 C28.7196923,46.4876873 29.6196923,47.5011904 29.6196923,47.5011904" id="Stroke-202" stroke="#000000" stroke-width="0.071"></path>
                    <path d="M21.9858462,50.5314714 C21.9858462,50.5314714 27.912,51.6565527 29.6196923,50.5314714 C29.6196923,50.5314714 27.552,53.1582108 21.9858462,50.5314714" id="Fill-204" fill="#000000"></path>
                    <path d="M21.9858462,44.2793666 C21.9858462,44.2793666 25.4612308,41.8106964 30.1089231,44.7024343" id="Stroke-206" stroke="#000000" stroke-width="0.081"></path>
                    <path d="M21.9858462,50.5314714 C21.9858462,50.5314714 28.9227692,52.1819006 30.612,49.5272666" id="Stroke-208" stroke="#000000" stroke-width="0.081"></path>
                </g>
            </g>
        </g>
    </g>
</svg>