
<svg width="62px" height="56px" viewBox="0 0 62 56" version="1.1" xmlns="http://www.w3.org/2000/svg" xmlns:xlink="http://www.w3.org/1999/xlink">
    <g id="Page-1" stroke="none" stroke-width="1" fill="none" fill-rule="evenodd">
        <g id="iPhone-XS-Max" transform="translate(-169.000000, -668.000000)">
            <g id="Group" transform="translate(169.000000, 669.838027)">
                <path d="M-0.00085354359,21.1619273 C5.56577963,21.4604114 9.99875503,26.712832 9.99875503,33.1485405 C9.99875503,39.584249 5.56577963,44.8366696 -0.00085354359,45.1351537 Z" id="Combined-Shape" fill="#000000" transform="translate(4.999378, 33.148541) scale(-1, 1) translate(-4.999378, -33.148541) "></path>
                <path d="M51.9991465,21.1619273 C57.5657796,21.4604114 61.998755,26.712832 61.998755,33.1485405 C61.998755,39.584249 57.5657796,44.8366696 51.9991465,45.1351537 Z" id="Combined-Shape-Copy" fill="#000000"></path>
                <path d="M8.99875503,23.1619731 C10.6010549,7.72065771 17.9348032,-5.32907052e-14 31,-5.32907052e-14 C44.0651968,-5.32907052e-14 51.3985301,7.71618017 53,23.1485405" id="Path-2" stroke="#000000" stroke-width="2"></path>
                <path d="M29.5,12.6619731 L29.5,52.6619731" id="Line" stroke="#000000" stroke-width="2" stroke-linecap="round" stroke-linejoin="bevel"></path>
                <path d="M39.9444514,20.1655628 L39.547676,45.162414" id="Line-Copy" stroke="#000000" stroke-width="2" stroke-linecap="round" stroke-linejoin="bevel" transform="translate(39.746064, 32.663988) rotate(-0.909380) translate(-39.746064, -32.663988) "></path>
                <path d="M18.9047739,22.1652479 L18.5873536,42.1627288" id="Line-Copy-2" stroke="#000000" stroke-width="2" stroke-linecap="round" stroke-linejoin="bevel" transform="translate(18.746064, 32.163988) rotate(-0.909380) translate(-18.746064, -32.163988) "></path>
                <path d="M43.8650964,25.164933 L43.6270311,40.1630437" id="Line-Copy-3" stroke="#000000" stroke-width="2" stroke-linecap="round" stroke-linejoin="bevel" transform="translate(43.746064, 32.663988) rotate(-0.909380) translate(-43.746064, -32.663988) "></path>
                <path d="M36.8016123,29.1644292 L36.6905152,36.1635475" id="Line-Copy-4" stroke="#000000" stroke-width="2" stroke-linecap="round" stroke-linejoin="bevel" transform="translate(36.746064, 32.663988) rotate(-0.909380) translate(-36.746064, -32.663988) "></path>
                <path d="M47.8016123,29.1644292 L47.6905152,36.1635475" id="Line-Copy-5" stroke="#000000" stroke-width="2" stroke-linecap="round" stroke-linejoin="bevel" transform="translate(47.746064, 32.663988) rotate(-0.909380) translate(-47.746064, -32.663988) "></path>
                <path d="M14.8016123,29.1644292 L14.6905152,36.1635475" id="Line-Copy-6" stroke="#000000" stroke-width="2" stroke-linecap="round" stroke-linejoin="bevel" transform="translate(14.746064, 32.663988) rotate(-0.909380) translate(-14.746064, -32.663988) "></path>
                <path d="M21.8412898,27.1647441 L21.6508376,39.1632326" id="Line-Copy-8" stroke="#000000" stroke-width="2" stroke-linecap="round" stroke-linejoin="bevel" transform="translate(21.746064, 33.163988) rotate(-0.909380) translate(-21.746064, -33.163988) "></path>
                <path d="M32.9285804,21.1654368 L32.563547,44.1625399" id="Line-Copy-9" stroke="#000000" stroke-width="2" stroke-linecap="round" stroke-linejoin="bevel" transform="translate(32.746064, 32.663988) rotate(-0.909380) translate(-32.746064, -32.663988) "></path>
                <path d="M25.9047739,23.1652479 L25.5873536,43.1627288" id="Line-Copy-7" stroke="#000000" stroke-width="2" stroke-linecap="round" stroke-linejoin="bevel" transform="translate(25.746064, 33.163988) rotate(-0.909380) translate(-25.746064, -33.163988) "></path>
            </g>
        </g>
    </g>
</svg>