<svg xmlns="http://www.w3.org/2000/svg" viewBox="0 0 2564.39 1401.68">
  <defs>
    <clipPath id="clip-path" transform="translate(82.23 20.65)">
      <path class="cls-1" d="M2076.04 1149.31l-621.92-537.06h23.31l632.22 537.06h-33.61z"/>
    </clipPath>
    <clipPath id="clip-path-2" transform="translate(82.23 20.65)">
      <path class="cls-1" d="M569.92 1158.97l737.22-544.21h-27.63l-749.43 544.21h39.84z"/>
    </clipPath>
    <clipPath id="clip-path-3" transform="translate(82.23 20.65)">
      <path class="cls-2" d="M820.65 771.97l-839.6 394.24V18.01l839.6 417.36v336.6z"/>
    </clipPath>
    <clipPath id="clip-path-4" transform="translate(82.23 20.65)">
      <path class="cls-3" d="M2238.6 1361s.59 2.63-.31 3.84a1.77 1.77 0 00-.47 1.33s.11.52 2.07.52a12.79 12.79 0 00.7-5 3.42 3.42 0 01-1.99-.69z"/>
    </clipPath>
    <clipPath id="clip-path-5" transform="translate(82.23 20.65)">
      <path class="cls-4" d="M2242.15 1320.07s-3.34 2.49-6.47 0v-2.62l6.47.1z"/>
    </clipPath>
    <clipPath id="clip-path-6" transform="translate(82.23 20.65)">
      <path class="cls-4" d="M2231.39 1321.49a12.31 12.31 0 00-4.27 9.68c.34 6 4.49 4.64 6.86 3.26s2.83-1.88 3.77-1.61 5.57 0 6.12-1.61-2.37-2.39-3.45-2.39c0 0-.6-1.18-2-.26 0 0-4.53.44-6.64 1.85a13.09 13.09 0 01-.49-3.35c.01-1.59.1-5.57.1-5.57z"/>
    </clipPath>
    <clipPath id="clip-path-7" transform="translate(82.23 20.65)">
      <path class="cls-4" d="M2246.07 1321.49s6.17 5.18 7.48 12.46c0 0 1.48 6.89-1.71 9.11 0 0-1.59 1.65-2.79 1 0 0-1.05-.11.64-3.47 0 0-.73-1.68 0-2l1.06-.5s0-3.92-4.08-9.09z"/>
    </clipPath>
    <clipPath id="clip-path-8" transform="translate(82.23 20.65)">
      <path class="cls-3" d="M2240.31 1368.64s-3 5.36-2.68 6.52c0 0-1.67.81-.51 2.74h9.25a2.61 2.61 0 00.42-2.86s1.5-2.39 0-7.51a7 7 0 00-6.48 1.11z"/>
    </clipPath>
    <style>
      .cls-1{fill:#eadcdc}.cls-2{fill:#a9998b}.cls-3{fill:#7a7320}.cls-4{fill:#7c4e24}.cls-5{fill:#b68f76}.cls-6{fill:#a6755a}.cls-7{fill:#936b57}.cls-9{fill:#2f2d37}.cls-10,.cls-43,.cls-47{fill:none}.cls-10{stroke:#2f2d37}.cls-10,.cls-43,.cls-47{stroke-miterlimit:10}.cls-10,.cls-47{stroke-width:.08px}.cls-14{fill:#55616b}.cls-32{fill:#998a7f}.cls-34{fill:#c4be51}.cls-35{fill:#fff}.cls-36{fill:#191919}.cls-38{fill:#5b3311}.cls-47{stroke:#000}.cls-43{stroke-width:.1px;stroke:#235a6d}
    </style>
  </defs>
  <g id="Left_foreground" data-name="Left foreground">
    <path class="cls-5" d="M63.28 642.37h2501.11v537.3H63.28z"/>
    <path class="cls-6" d="M1482.05 654.21s8.08 14.72 6.54 23.24 2.05 39.6 36.47 56.65 28.77 58.15 19 68.68-12 38.81 38.76 61.2c0 0-45.42 1.53-46.31 11.09s116.65 48.6 154 49.06-39.18 9.16-44.52 17-37.4 14.78-41.85 30.42-46.31-1.74-38.29 14.77 46.59 29.55 25.52 38.24-154.29 70.4 89.11 131.92h514.42L1493 654.21M1082.05 688.52s19 26.05 4.66 34.82-76.49 17.54-64.23 42.26 19.69 55-1.59 62.19-73.57 19.13-51.52 27.11 94 24.93 62.91 35.59-157.68 4.27-163.4 22.61 22.06 39.07 0 47.84-88.14-18.53-105.29 17.88-14.43 72-43.66 74.08-151.81 10.52-151.81 10.52zM806.8 1032.75s-35.43 6.71 0 13.42 69.81 12.09 60.19 0-14.44-22.82-60.19-13.42zM892.63 984.78s-12.21 7.44 17.91 7.18 65.13-7.73 43.15-11.14-45.59-1.38-61.06 3.96zM925.38 1029.17s8.77 16.56 19.36 6.23 23.61-18.27 5.7-15.09-30.67 1.94-25.06 8.86zM1380.9 919.07s-19.22 10.46 0 11.46 44.9-1.43 31.55-5.73-23.29-14.8-31.55-5.73zM1343.61 786.18s-26.45 18.73-6 17.36 28.64 7.33 29.66-3 1-27.35-23.66-14.36zM1121.67 1045.85s-53.43 15.1-23.63 17.57 71.71 5.55 51.78 0-2.82-26.42-28.15-17.57z" transform="translate(82.23 20.65)"/>
    <path class="cls-6" d="M1084.68 754s-28.83 8-9.79 10 31.58 5 26.34 0 6.06-16-16.55-10zM817.53 1106s-32.88 10-6.16 13 48.29 10 47.26 0-9.25-28-41.1-13zM1187.52 970s-28.81 0-21.33 7.78-9.91 26.14 10 27.61S1277.66 995.1 1255 991s-67.48-21-67.48-21zM1311.26 1119H1122s20.17-18 33.19-16.82 28-18.17 24.93-23.5-11.3-5.94 0-15.29 116 29.35 121.27 33.31 22.61 8.72 16.24 15.51 9.09 6.79-6.37 6.79zM611.06 1090.5s-74.25 25.14-29 28.53 97.79.11 77.95-6.79-16.33-35.34-48.95-21.74z" transform="translate(82.23 20.65)"/>
    <path class="cls-7" d="M1559.66 632.91l978.83 544.2-346.61-7.14-574.05-481.36-58.17-55.7z"/>
    <path class="cls-1" d="M2158.27 1169.97l-621.92-537.06h23.31l632.22 537.06h-33.61z"/>
    <g clip-path="url(#clip-path)">
      <path class="cls-9" d="M2075.07 1070.74l-7.83 21.13-74.88-62.95v-28.25l82.71 70.07zM1938.01 980.27l-72.28-62.41V893.1l70.31 59.15 1.97 28.02zM1832.85 865.17v24.29l-69.71-60.2v-23.31l69.71 59.22zM1720.34 769.59v22.71l-46.33-40v-22.06l46.33 39.35zM1644.99 705.59v21.65l-44.06-38.87v-18.78l44.06 36z"/>
    </g>
    <path class="cls-10" d="M2143.08 1128.51h309.74"/>
    <path class="cls-1" d="M652.15 1179.62l737.22-544.2h-27.63l-749.43 544.2h39.84z"/>
    <g clip-path="url(#clip-path-2)">
      <path class="cls-9" d="M722.71 1095.71l10.46 24.11 88.75-63.79v-28.62l-99.21 68.3zM886.36 1006.74l85.67-63.24v-25.09l-83.34 59.93-2.33 28.4zM1011.01 890.1v24.62l82.63-61V830.1l-82.63 60zM1144.38 793.25v23.01l54.91-40.53v-22.35l-54.91 39.87zM1233.69 728.4v21.94l52.23-39.39v-19.03l-52.23 36.48z"/>
    </g>
    <path class="cls-7" d="M1361.74 635.42l-1160.3 551.44 410.87-7.24 749.43-544.2z"/>
    <path class="cls-10" d="M716.86 1103.7l-329.03-4.73M852.17 1005.44H583.16M982.04 911.14H790.13M1072.97 845.11H919.6M1136.41 799.04h-118.96M1193.48 757.94h-89.53M1233.69 728.4h-67.43"/>
    <path class="cls-6" d="M530.08 1019.6s-55.74 14.12-18.85 19.19 94.53 8.59 74.93 0-36.16-25.49-56.08-19.19zM823.45 945.93s-43.17-4.52-29-10.22 30-3.53 9.39-12.58-51.19-11.75-12.25-13.81 27.23 2.1 45.77 1.72 23.07 8 23.07 8z" transform="translate(82.23 20.65)"/>
    <path fill="#3f514e" d="M1499.63 0h183.72v538.75h-183.72z"/>
    <path fill="#414c54" d="M1120.17 323.9l4.54 31.48v167.11l-8.98-4.72 4.44-193.87z"/>
    <path class="cls-14" d="M829.48 323.9h290.69v259.9H829.48z"/>
    <path fill="#7a5646" d="M745.66 82.3l43.37 90.79v344.68l-43.37-10.09V82.3z"/>
    <path class="cls-7" d="M498.48 82.3h247.18v359.06H498.48z"/>
    <path fill="#aa8167" d="M1915.21 639.14H898.13l7.81-147.88h1017.09l-7.82 147.88z"/>
    <path fill="#dbc9bf" d="M2564.39 38.66l-494.65 236.93-17.48 367.77 508.73-.99"/>
    <path fill="#7f6a5c" d="M1974.71 668.92h-209.33l4.07-572.25 205.26.99v571.26z"/>
    <path fill="#a08f84" d="M1769.45 96.67l-53.92 155.08v401.03l49.28 16.14 4.64-572.25z"/>
    <path class="cls-14" d="M1778.99 738.74V565.42l188.32-85.25v397.85l-188.32-139.28z"/>
    <path fill="#a58c74" d="M1959.17 886.51V82.01h272.31v1000.18l-272.31-195.68z"/>
    <path fill="#987e6c" d="M2231.48 1082.19l307.01 1.7V83.71l-307.01-1.7"/>
    <path fill="#7b5945" d="M1235.83 635.42l-439.3 209.69V635.42h439.3z"/>
    <path fill="#634436" d="M898.13 722.91h151.95l-3.45-192.34h-148.5"/>
    <path fill="#513933" d="M1155.63 673.13v-91.46l-109-51.1 3.45 192.34 105.55-49.78z"/>
    <path class="cls-2" d="M902.88 792.63l-839.6 394.23V38.66l839.6 417.37v336.6z"/>
    <g clip-path="url(#clip-path-3)">
      <path fill="#7f736b" d="M225.16 186.6L30.13 368.93 0 542.19l225.16-82.93V186.6z"/>
    </g>
    <path fill="#877d7e" d="M225.16 186.6h150.75v272.66H225.16z"/>
    <path class="cls-9" d="M246.47 247.1h84.93v153.61h-84.93z"/>
    <path d="M293.68 438.61L500 475.93V266.19L293.68 166z" transform="translate(82.23 20.65)" fill="#6d5b5a"/>
    <path d="M312 406.25l149.59 27.07V281.24L312 208.57z" transform="translate(82.23 20.65)" fill="#4b413f"/>
    <path fill="#6f5648" d="M375.92 459.26l206.32 36.45H440.82l-215.66-36.45h150.76z"/>
    <path stroke-width=".4" stroke-miterlimit="10" stroke="#2f2d37" fill="none" d="M527.34 487.6l-112.88 3.66v187.56"/>
    <path class="cls-32" d="M445.11 945.93s-18.57-38.78 11.83-49.62 53.27-4.82 43.07-30.11-38.56-24.08-7.75-36.13 39.44-24.21 62.85-29.57 22.19-6.17 34.51 4.47 19.72 42.66 19.72 42.66-49.3 32.2-78.87 39.24-14.09 1-30.46 16.67-36.74 40.22-54.9 42.39zM659.86 649.26c9 13.46-1 17 13.06 19.43s.5 7.23 21.45 0 39.44-19.59 24.63-19.43-72.19-19.43-59.14 0zM121.13 905.33s-45.19 8.82-18.83 25.42 17.24 35 40.63 22.13 49.76-56.44-21.8-47.55z" transform="translate(82.23 20.65)"/>
  </g>
  <g id="Character">
    <path class="cls-3" d="M2238.6 1361s.59 2.63-.31 3.84a1.77 1.77 0 00-.47 1.33s.11.52 2.07.52a12.79 12.79 0 00.7-5 3.42 3.42 0 01-1.99-.69z" transform="translate(82.23 20.65)"/>
    <g clip-path="url(#clip-path-4)">
      <path d="M2238.77 1362.25a9.32 9.32 0 00.27 2c.17.13-2.32 1.33-2.64.58a2.54 2.54 0 010-1.68l2.32-.94" transform="translate(82.23 20.65)"/>
      <path class="cls-34" d="M2238.29 1364.79s.62-1 2.77-.56.66 2 .66 2l-3.15.94-1.61-.94 1.33-1.44" transform="translate(82.23 20.65)"/>
      <path class="cls-35" d="M2237.63 1365.17s-.23 1.82 4.14.83-5.69 2.06-6 1.17 1.86-2 1.86-2z" transform="translate(82.23 20.65)"/>
      <path d="M2239.38 1364.2s-.05-1 1.21-.9 1 .83 1 .83a9.61 9.61 0 00-2.21.07z" transform="translate(82.23 20.65)"/>
      <path d="M2239.75 1363.45s-.94-.66-.06-.79 1.5-.25 1.84.1-.08.86-.08.86a2.16 2.16 0 00-1.7-.17z" transform="translate(82.23 20.65)"/>
      <path d="M2239.69 1362.66s-.65-.91.9-.75 1.29.85 1.29.85a3.75 3.75 0 00-2.19-.1z" transform="translate(82.23 20.65)"/>
      <path class="cls-35" d="M2239.69 1362.42c.07 0-1-.13-1.1-.81s-.77.91-.77.91a4.1 4.1 0 001.56.25s.8-.06.31-.35z" transform="translate(82.23 20.65)"/>
      <path class="cls-34" d="M2238.65 1361.23s0 .4.73.11 0-.82 0-.82l-1.56.13.83.58" transform="translate(82.23 20.65)"/>
    </g>
    <path class="cls-36" d="M2235.53 1319.68a8.57 8.57 0 00-4.14 1.81s-.45 17 0 17.5c0 0-.06 1 .26 1.12 0 0 7.21-6.28 15.78-1.6l-1.36-17s-2.71-2.8-10.25-1.81z" transform="translate(82.23 20.65)"/>
    <path class="cls-4" d="M2242.15 1320.07s-3.34 2.49-6.47 0v-2.62l6.47.1z" transform="translate(82.23 20.65)"/>
    <g clip-path="url(#clip-path-5)">
      <path class="cls-38" d="M2235.56 1317.82s2.15 4.57 6.65 1.76l-.09-1.32z" transform="translate(82.23 20.65)"/>
    </g>
    <path class="cls-4" d="M2231.39 1321.49a12.31 12.31 0 00-4.27 9.68c.34 6 4.49 4.64 6.86 3.26s2.83-1.88 3.77-1.61 5.57 0 6.12-1.61-2.37-2.39-3.45-2.39c0 0-.6-1.18-2-.26 0 0-4.53.44-6.64 1.85a13.09 13.09 0 01-.49-3.35c.01-1.59.1-5.57.1-5.57z" transform="translate(82.23 20.65)"/>
    <g clip-path="url(#clip-path-6)">
      <path d="M2314.56 1348.96s-1.32-.94-5.88.25-1.54-8.25 2.71-8.88 4.42-.48 4.42-.48z" stroke-width=".1" stroke="#000" fill="#191919" stroke-miterlimit="10"/>
      <path d="M2231.76 1330.41a14.82 14.82 0 00-2 1.78 10.12 10.12 0 012-2z" transform="translate(82.23 20.65)"/>
    </g>
    <path class="cls-4" d="M2246.07 1321.49s6.17 5.18 7.48 12.46c0 0 1.48 6.89-1.71 9.11 0 0-1.59 1.65-2.79 1 0 0-1.05-.11.64-3.47 0 0-.73-1.68 0-2l1.06-.5s0-3.92-4.08-9.09z" transform="translate(82.23 20.65)"/>
    <g clip-path="url(#clip-path-7)">
      <path class="cls-36" d="M2250 1323.83s1.47 5.57-3.1 7.75-4.61-10.95-1.45-11.72a4 4 0 014.55 2.2z" transform="translate(82.23 20.65)"/>
    </g>
    <path d="M2247.41 1338.17s1.47 22.11-.53 29.52c0 0-2.36-.91-6.48 1.1 0 0-.4-.06-.48-.8s.45-4 .48-6.23a5.84 5.84 0 01-3.29-1.92c-1.71-1.78-5.28-9.08-5.47-20.06 0 0 6.75-7.51 15.77-1.61z" transform="translate(82.23 20.65)" fill="#407a95"/>
    <path class="cls-43" d="M2240.4 1361.76s.16-11-1.86-18.54M2242.41 1350.74s2.4.73 3.49.18M2235.5 1352.35a3.31 3.31 0 002.41-.25" transform="translate(82.23 20.65)"/>
    <path class="cls-34" d="M2241.43 1367.94s-1.17-1.32 0-1.82 4.19-.53 4.09.2-.32.88-.32.88z" transform="translate(82.23 20.65)"/>
    <path d="M2242.63 1367.46s-.63-.56-.55-1a6.08 6.08 0 011.94-.2s.4.62 0 .93a2.78 2.78 0 01-1.39.27z" transform="translate(82.23 20.65)"/>
    <path class="cls-3" d="M2240.31 1368.64s-3 5.36-2.68 6.52c0 0-1.67.81-.51 2.74h9.25a2.61 2.61 0 00.42-2.86s1.5-2.39 0-7.51a7 7 0 00-6.48 1.11z" transform="translate(82.23 20.65)"/>
    <g clip-path="url(#clip-path-8)">
      <path d="M2238.6 1372a6.34 6.34 0 00-.25 2.43c.23.73-1.21 1.75-1.82 1s-1.3-.5-.39-1.31l2.46-2.16M2247.34 1371.81s-.24 2-1.36 2.36.47 2.46 1.86 1.31-.38-5.11-.38-5.11zM2240.9 1370.17s-.92-1.38 1.18-1.71 4.14.84 2.48 2.12z" transform="translate(82.23 20.65)"/>
      <path class="cls-34" d="M2240 1369.15s.08.44.38.33a2.72 2.72 0 012.57-1.07c2.09.07 2.14 1.18 2.14 1.18s2 .27 2.27-.95-1.67-2.2-1.67-2.2l-5.8 1.76.11 1" transform="translate(82.23 20.65)"/>
      <path d="M2239.48 1373.44s-1.14 1.6-.42 2.11 5.3.45 5.93-.31-.12-1.81-.12-1.81z" transform="translate(82.23 20.65)" fill="none"/>
      <path class="cls-35" d="M2244.56 1370.58s2.41.47 3-.82l-.15.94s-.38 1.32-1.18 1.56a1.8 1.8 0 01-1.54-.44zM2240.9 1370.17a2.14 2.14 0 01-1.8-.15c-.91-.52-.76.61-.76.61s.1 1.57 2 1.28.56-1.74.56-1.74z" transform="translate(82.23 20.65)"/>
      <path d="M2239.48 1373.44s-.1-1.61 2.27-2.18c1.77-.42 4.72.42 3.12 2.17-.99 1.09-5.39.01-5.39.01z" transform="translate(82.23 20.65)"/>
      <path d="M2240.31 1371.91s-.84-1.36.88-1.84 4.5.32 3.5 1.75z" transform="translate(82.23 20.65)"/>
      <path class="cls-34" d="M2236.7 1376.28a1.81 1.81 0 01.93-1.12c.54-.43 1.64-2.54 4.72-2.38a5.68 5.68 0 014.44 2.26 1.57 1.57 0 01.67 1.35c-.11.8 2.42 2.37-.48 3s-14.13 1-13.66-.74 3.38-2.33 3.38-2.33" transform="translate(82.23 20.65)"/>
      <path class="cls-35" d="M2236.7 1376.28s3.73 1.92 10.56-.39c0 0 1.76 2.31-.17 3.36s-11.66 2.39-12.71 1.47 2.32-4.44 2.32-4.44z" transform="translate(82.23 20.65)"/>
    </g>
    <path class="cls-4" d="M2243.36 1311.28c0 3.78-.17 8.37-4.16 8.37-3.51 0-4.63-4.49-4.63-7.76-.14-4.43.67-5.43 3.88-5.6 3.99-.21 4.67 1.37 4.91 4.99z" transform="translate(82.23 20.65)"/>
    <path d="M2234.77 1309.61s-.4-.91-.08-1.19.29-.71.76-1.1.33-.67 1.18-1 .91-.53 1.65-.43 1.24-.44 1.8 0a15.45 15.45 0 001.59.76c.6.36.95 0 1.2.5a1.61 1.61 0 01.17.94s.54.93.2 1.52a4.6 4.6 0 01-.92-.79c-.19-.29-1.27-.37-1.67-.55a14.33 14.33 0 00-2.35 0h-1.94c-.56 0-.58.37-.91.5s-.29.79-.68.84zM2238.49 1328.5a4 4 0 00-1.45 4.28s-.12-.09-.72.26c0 0-.84-3.08 1.37-4.44zM2234.59 1313s1.37 5.68 3.62 5.5c3.07-.24 3.85 2.48 5.12-4.9 0 0-.1 4.16-1.34 5 0 0 .21.35 0 .48s-.36.37-.61.33-.3.38-.56.4-.48.16-.73.11a1.55 1.55 0 01-.68.14c-.41 0-1 .09-1.27-.14a1.83 1.83 0 01-.9-.33c-.39-.31-.65-.2-.83-.58s-.15-.14-.47-.57-.42-.19-.42-.56-.17 0-.22-.64a16.93 16.93 0 01-.71-4.24z" transform="translate(82.23 20.65)"/>
    <path class="cls-34" d="M2241.06 1368.14s-.1-.36-.33-.33-.73-.46-.91-.17 0 1 .49 1zM2245.94 1367.3a.52.52 0 01.41-.31c.31 0 .18-.68.7-.6 0 0 .31.89-.26 1.14z" transform="translate(82.23 20.65)"/>
    <path class="cls-38" d="M2238.91 1315.87s-.17-.88 1-.9 1.28.41 1.19 1c0 0 .4.59-.61.7s-1.79-.15-1.58-.8z" transform="translate(82.23 20.65)"/>
    <path d="M2318.55 1350.51l1.15-.2-.27 2.02-1.2.1.32-1.92z"/>
    <path d="M2321.47 1336.48a2.16 2.16 0 001 0 .59.59 0 01.63.06" stroke-width=".07" stroke="#000" stroke-miterlimit="10" fill="none"/>
    <path d="M2239.24 1316.55s1.29.24 1.66 0c0 0-.45.56-1.66 0z" transform="translate(82.23 20.65)"/>
    <path class="cls-47" d="M2239.24 1315.2a1.62 1.62 0 011.76.09M2239.24 1316.55s1.51.35 1.87-.22" transform="translate(82.23 20.65)"/>
  </g>
</svg>